<?xml version="1.0" encoding="utf-8"?>
<!-- Generator: Adobe Illustrator 19.2.0, SVG Export Plug-In . SVG Version: 6.00 Build 0)  -->
<!DOCTYPE svg PUBLIC "-//W3C//DTD SVG 1.1//EN" "http://www.w3.org/Graphics/SVG/1.1/DTD/svg11.dtd">
<svg version="1.1" id="Layer_1" xmlns="http://www.w3.org/2000/svg" xmlns:xlink="http://www.w3.org/1999/xlink" x="0px" y="0px"
	 viewBox="0 0 100 100" style="enable-background:new 0 0 100 100;" xml:space="preserve">
<style type="text/css">
	.st0{fill:#636466;}
	.st1{fill:#FFFFFF;}
</style>
<path class="st0" d="M86.9,23.6C79.3,10.5,65.2,2.4,50,2.4c-7.4,0-14.8,2-21.3,5.7c-9.9,5.7-16.9,14.8-19.9,25.8
	C5.9,44.8,7.4,56.2,13.1,66c7.6,13.1,21.7,21.2,37,21.2c7.4,0,14.8-2,21.3-5.7c9.9-5.7,16.9-14.8,19.9-25.8
	C94.1,44.8,92.6,33.4,86.9,23.6 M85.9,40c-0.4,1.5-1,2.9-1.7,4.3c-1.7-2.7-4-5-6.9-6.6c-3-1.7-6.4-2.7-9.8-2.7
	c1.6-2.9,2.6-6.3,2.6-9.8c0-3.2-0.8-6.3-2.1-9c6.6,0.2,12.7,3.8,16,9.5C86.6,30,87.2,35.1,85.9,40 M51.2,42.9
	c1.8-4.1,2.1-8.7,0.9-13.1c-0.4-1.4-0.9-2.6-1.5-3.9c1.7-3.1,4.1-5.6,7.2-7.4c2.7-1.5,5.7-2.4,8.8-2.5c1.4,2.7,2.3,5.7,2.3,9
	c0,3.6-1,7-2.8,9.9C60.2,35.3,54.8,38.2,51.2,42.9 M65.3,36.2c-3.1,4.3-7.9,7.2-13.4,7.8C55.1,39.6,60,36.7,65.3,36.2 M51,30.2
	c1.1,4.2,0.8,8.7-1,12.6c-1.8-4-2.1-8.4-1-12.6c0.3-1,0.6-1.9,1-2.8C50.4,28.3,50.7,29.2,51,30.2 M47.8,29.9
	c-1.2,4.4-0.8,9,0.9,13.1c-3.5-4.7-9-7.7-14.9-8C32,32.1,31,28.7,31,25.1c0-3.2,0.8-6.3,2.3-9c3.1,0.1,6.1,1,8.8,2.5
	c3.1,1.8,5.6,4.3,7.2,7.4C48.7,27.2,48.2,28.5,47.8,29.9 M48.1,44c-5.5-0.6-10.3-3.5-13.4-7.8C40,36.7,44.9,39.6,48.1,44 M33.2,36.1
	c3.2,4.8,8.3,8.2,14.3,9c-6,0.7-11.2,4.1-14.3,9c-0.2,0-0.4,0-0.7,0c-3.3,0-6.6-0.9-9.5-2.6c-2.7-1.5-4.9-3.6-6.5-6.2
	c1.6-2.7,3.9-5.1,6.8-6.8s6.1-2.6,9.5-2.6C32.9,36.1,33,36.1,33.2,36.1 M48,46.2c-3.1,4.3-8,7.1-13.3,7.8
	C37.8,49.7,42.5,46.8,48,46.2 M33.9,55.2c5.9-0.4,11.4-3.4,14.9-8.1c-2.4,5.6-2.1,11.8,0.5,17c-1.6,3-4,5.6-7.1,7.4
	c-2.7,1.6-5.8,2.4-8.9,2.5c-1.4-2.7-2.3-5.7-2.3-9C31.1,61.5,32.1,58.1,33.9,55.2 M50,47.3c2.3,5.1,2.1,10.7,0,15.6
	C47.9,58,47.7,52.3,50,47.3 M51.2,47.1c3.5,4.7,9,7.7,14.9,8.1c1.8,2.9,2.8,6.3,2.8,9.9c0,3.2-0.8,6.3-2.3,9c-3.1-0.1-6.2-1-8.9-2.5
	c-3.1-1.8-5.5-4.4-7.1-7.4C53.3,59,53.6,52.7,51.2,47.1 M52,46.2c5.5,0.6,10.2,3.5,13.3,7.8C60,53.3,55.1,50.5,52,46.2 M66.8,54.1
	c-3.2-4.8-8.3-8.2-14.3-9c6-0.7,11.2-4.1,14.3-9c0.2,0,0.3,0,0.5,0c3.3,0,6.6,0.9,9.4,2.6c2.9,1.7,5.2,4,6.8,6.8
	c-1.6,2.5-3.8,4.6-6.5,6.2c-2.9,1.7-6.2,2.5-9.5,2.5C67.3,54.1,67,54.1,66.8,54.1 M82.5,21.5c-3.8-4.2-9.3-6.6-15-6.6h-0.1
	C64.2,9.5,58.7,5.7,52.2,5C64.3,5.7,75.4,11.8,82.5,21.5 M50,6c6.7,0,12.6,3.6,16,8.9c-3,0.2-6,1.1-8.7,2.7
	c-3.1,1.8-5.6,4.2-7.3,7.2c-1.8-3-4.2-5.4-7.3-7.2C40,16.1,37,15.2,34,14.9C37.4,9.6,43.3,6,50,6 M30,10.3c5.4-3.2,11.6-5,17.8-5.3
	c-6.5,0.7-12,4.5-15.1,9.9h-0.1c-5.9,0-11.4,2.5-15.2,6.8C20.6,17.1,24.9,13.2,30,10.3 M16,25.6c3.3-5.7,9.4-9.3,16-9.5
	c-1.4,2.7-2.1,5.8-2.1,9c0,3.6,0.9,6.9,2.6,9.8c-3.4,0-6.8,1-9.8,2.7c-2.9,1.7-5.2,4-6.9,6.6c-0.7-1.3-1.3-2.8-1.7-4.3
	C12.8,35.1,13.4,30,16,25.6 M11.3,34.5c0.5-1.8,1.1-3.6,1.8-5.3c-1.1,3.6-1.2,7.4-0.2,11.1c0.5,1.8,1.2,3.6,2.2,5.2
	c-2.7,5-3.3,11-1.3,16.5C9.7,53.4,8.8,43.8,11.3,34.5 M15.8,46.5c1.7,2.4,3.9,4.5,6.5,6c3.1,1.8,6.6,2.7,10.1,2.7
	c-1.6,2.9-2.6,6.3-2.6,9.8c0,3.2,0.8,6.3,2.1,9c-6.5-0.3-12.4-3.8-15.7-9.5C13,58.8,13.1,52.1,15.8,46.5 M18.2,69
	c3.7,3.9,9,6.3,14.5,6.3c2.3,4,6,7.1,10.3,8.7C33.2,82.3,24.3,76.9,18.2,69 M50,84.1c-6.7,0-12.6-3.5-16-8.9
	c3.1-0.2,6.1-1.1,8.8-2.7c3.1-1.8,5.5-4.3,7.2-7.2c1.7,2.9,4.1,5.4,7.2,7.2c2.7,1.6,5.7,2.5,8.8,2.7C62.6,80.6,56.7,84.1,50,84.1
	 M70,79.3c-4.1,2.3-8.5,3.9-13.1,4.7c4.4-1.6,8-4.7,10.4-8.7c5.6,0,10.9-2.4,14.7-6.5C78.8,73,74.8,76.6,70,79.3 M68,74.1
	c1.3-2.7,2.1-5.8,2.1-9c0-3.6-0.9-6.9-2.6-9.8c3.5,0,7-0.9,10.1-2.7c2.6-1.5,4.8-3.6,6.5-6c2.8,5.5,2.8,12.3-0.5,18.1
	C80.4,70.2,74.4,73.8,68,74.1 M88.7,55c-0.7,2.5-1.6,4.8-2.6,7.1c2.1-5.6,1.5-11.7-1.2-16.7c1-1.6,1.7-3.3,2.2-5.2
	c1-3.7,0.9-7.4-0.2-11C90.4,37.4,91,46.4,88.7,55"/>
<g>
	<path class="st1" d="M24.6,97.7h-0.8c-0.1,0-0.2,0-0.2-0.1c-0.1,0-0.1-0.1-0.1-0.2l-0.7-1.8h-3.3l-0.7,1.8c0,0.1-0.1,0.1-0.1,0.2
		c-0.1,0-0.1,0.1-0.2,0.1h-0.8l2.9-7.4h1L24.6,97.7z M19.8,95h2.8l-1.2-3c-0.1-0.2-0.1-0.4-0.2-0.7c0,0.1-0.1,0.3-0.1,0.4
		c0,0.1-0.1,0.2-0.1,0.3L19.8,95z"/>
	<path class="st1" d="M25.4,97.7v-7.6h0.9v3.1c0.2-0.3,0.5-0.5,0.7-0.6c0.3-0.2,0.6-0.2,1-0.2c0.3,0,0.6,0.1,0.8,0.2
		s0.5,0.3,0.6,0.5c0.2,0.2,0.3,0.5,0.4,0.8c0.1,0.3,0.1,0.7,0.1,1.1c0,0.4-0.1,0.7-0.2,1.1c-0.1,0.3-0.3,0.6-0.4,0.9
		c-0.2,0.2-0.4,0.4-0.7,0.6c-0.3,0.1-0.6,0.2-0.9,0.2c-0.3,0-0.6-0.1-0.9-0.2c-0.2-0.1-0.4-0.3-0.6-0.5l0,0.5c0,0.1-0.1,0.2-0.2,0.2
		H25.4z M27.7,93.2c-0.3,0-0.6,0.1-0.8,0.2s-0.4,0.3-0.6,0.6v2.5c0.2,0.2,0.3,0.4,0.5,0.5c0.2,0.1,0.4,0.1,0.7,0.1
		c0.5,0,0.9-0.2,1.1-0.5c0.3-0.3,0.4-0.8,0.4-1.5c0-0.3,0-0.6-0.1-0.9c-0.1-0.2-0.1-0.4-0.3-0.6c-0.1-0.2-0.3-0.3-0.4-0.3
		C28.1,93.2,28,93.2,27.7,93.2z"/>
	<path class="st1" d="M33.2,92.4c0.4,0,0.7,0.1,1,0.2c0.3,0.1,0.6,0.3,0.8,0.5c0.2,0.2,0.4,0.5,0.5,0.8c0.1,0.3,0.2,0.7,0.2,1.1
		c0,0.4-0.1,0.8-0.2,1.1c-0.1,0.3-0.3,0.6-0.5,0.8c-0.2,0.2-0.5,0.4-0.8,0.5c-0.3,0.1-0.7,0.2-1,0.2s-0.7-0.1-1-0.2
		c-0.3-0.1-0.6-0.3-0.8-0.5c-0.2-0.2-0.4-0.5-0.5-0.8c-0.1-0.3-0.2-0.7-0.2-1.1c0-0.4,0.1-0.8,0.2-1.1c0.1-0.3,0.3-0.6,0.5-0.8
		c0.2-0.2,0.5-0.4,0.8-0.5C32.5,92.5,32.9,92.4,33.2,92.4z M33.2,97.1c0.5,0,0.9-0.2,1.2-0.5c0.3-0.3,0.4-0.8,0.4-1.4
		c0-0.6-0.1-1.1-0.4-1.5c-0.3-0.3-0.6-0.5-1.2-0.5c-0.3,0-0.5,0-0.7,0.1s-0.4,0.2-0.5,0.4c-0.1,0.2-0.2,0.4-0.3,0.6
		c-0.1,0.2-0.1,0.5-0.1,0.8c0,0.3,0,0.6,0.1,0.8c0.1,0.2,0.2,0.4,0.3,0.6c0.1,0.2,0.3,0.3,0.5,0.4S33,97.1,33.2,97.1z"/>
	<path class="st1" d="M37.7,92.5v3.3c0,0.4,0.1,0.7,0.3,0.9c0.2,0.2,0.5,0.3,0.8,0.3c0.3,0,0.5-0.1,0.8-0.2c0.2-0.1,0.5-0.3,0.7-0.5
		v-3.8h0.9v5.2h-0.5c-0.1,0-0.2-0.1-0.2-0.2L40.2,97c-0.2,0.3-0.5,0.5-0.8,0.6c-0.3,0.2-0.6,0.2-1,0.2c-0.3,0-0.5,0-0.8-0.1
		c-0.2-0.1-0.4-0.2-0.5-0.4c-0.1-0.2-0.3-0.4-0.3-0.6c-0.1-0.2-0.1-0.5-0.1-0.8v-3.3H37.7z"/>
	<path class="st1" d="M44.2,97.8c-0.4,0-0.7-0.1-0.9-0.3c-0.2-0.2-0.3-0.6-0.3-1v-3.2h-0.6c-0.1,0-0.1,0-0.1,0c0,0-0.1-0.1-0.1-0.2
		v-0.4l0.9-0.1l0.2-1.6c0-0.1,0-0.1,0.1-0.1s0.1,0,0.1,0h0.5v1.8h1.5v0.7h-1.5v3.1c0,0.2,0.1,0.4,0.2,0.5c0.1,0.1,0.2,0.2,0.4,0.2
		c0.1,0,0.2,0,0.3,0c0.1,0,0.1-0.1,0.2-0.1c0.1,0,0.1-0.1,0.1-0.1c0,0,0.1,0,0.1,0c0,0,0.1,0,0.1,0.1l0.3,0.4
		c-0.2,0.1-0.3,0.3-0.6,0.3C44.6,97.8,44.4,97.8,44.2,97.8z"/>
	<path class="st1" d="M53.1,90.4v0.8h-3.5v2.6h3v0.8h-3v3.2h-1v-7.4H53.1z"/>
	<path class="st1" d="M58.1,97.7h-0.4c-0.1,0-0.2,0-0.2,0c-0.1,0-0.1-0.1-0.1-0.2L57.2,97c-0.1,0.1-0.3,0.2-0.4,0.3
		c-0.1,0.1-0.3,0.2-0.4,0.2c-0.1,0.1-0.3,0.1-0.5,0.2c-0.2,0-0.3,0.1-0.5,0.1c-0.2,0-0.4,0-0.6-0.1c-0.2-0.1-0.3-0.1-0.5-0.3
		c-0.1-0.1-0.2-0.3-0.3-0.4C54,96.9,54,96.7,54,96.4c0-0.2,0.1-0.4,0.2-0.6c0.1-0.2,0.3-0.4,0.5-0.5c0.3-0.1,0.6-0.3,1-0.4
		c0.4-0.1,0.9-0.1,1.5-0.1v-0.4c0-0.4-0.1-0.7-0.3-0.9c-0.2-0.2-0.4-0.3-0.8-0.3c-0.2,0-0.4,0-0.6,0.1c-0.2,0.1-0.3,0.1-0.4,0.2
		c-0.1,0.1-0.2,0.1-0.3,0.2c-0.1,0.1-0.2,0.1-0.2,0.1c-0.1,0-0.1,0-0.2,0s-0.1-0.1-0.1-0.1l-0.2-0.3c0.3-0.3,0.6-0.5,0.9-0.6
		c0.3-0.1,0.7-0.2,1.1-0.2c0.3,0,0.6,0,0.8,0.1c0.2,0.1,0.4,0.2,0.6,0.4c0.2,0.2,0.3,0.4,0.3,0.6c0.1,0.2,0.1,0.5,0.1,0.8V97.7z
		 M55.7,97.2c0.2,0,0.3,0,0.4,0c0.1,0,0.3-0.1,0.4-0.1c0.1-0.1,0.2-0.1,0.3-0.2s0.2-0.2,0.3-0.3v-1.1c-0.4,0-0.8,0-1.1,0.1
		c-0.3,0.1-0.5,0.1-0.7,0.2c-0.2,0.1-0.3,0.2-0.4,0.3c-0.1,0.1-0.1,0.2-0.1,0.4c0,0.1,0,0.3,0.1,0.4c0,0.1,0.1,0.2,0.2,0.2
		c0.1,0.1,0.2,0.1,0.3,0.1C55.5,97.2,55.6,97.2,55.7,97.2z"/>
	<path class="st1" d="M61,97.8c-0.4,0-0.7-0.1-0.9-0.3c-0.2-0.2-0.3-0.6-0.3-1v-3.2h-0.6c-0.1,0-0.1,0-0.1,0s-0.1-0.1-0.1-0.2v-0.4
		l0.9-0.1L60,91c0-0.1,0-0.1,0.1-0.1s0.1,0,0.1,0h0.5v1.8h1.5v0.7h-1.5v3.1c0,0.2,0.1,0.4,0.2,0.5c0.1,0.1,0.2,0.2,0.4,0.2
		c0.1,0,0.2,0,0.3,0c0.1,0,0.1-0.1,0.2-0.1c0.1,0,0.1-0.1,0.1-0.1c0,0,0.1,0,0.1,0c0,0,0.1,0,0.1,0.1l0.3,0.4
		c-0.2,0.1-0.3,0.3-0.6,0.3C61.5,97.8,61.3,97.8,61,97.8z"/>
	<path class="st1" d="M63.3,97.7v-7.6h0.9v3.1c0.2-0.2,0.5-0.4,0.7-0.6c0.3-0.1,0.6-0.2,0.9-0.2c0.3,0,0.5,0,0.8,0.1
		c0.2,0.1,0.4,0.2,0.5,0.4c0.1,0.2,0.3,0.4,0.3,0.6c0.1,0.2,0.1,0.5,0.1,0.8v3.3h-0.9v-3.3c0-0.4-0.1-0.7-0.3-0.9
		c-0.2-0.2-0.5-0.3-0.8-0.3c-0.3,0-0.5,0.1-0.8,0.2c-0.2,0.1-0.5,0.3-0.7,0.5v3.8H63.3z"/>
	<path class="st1" d="M71.1,92.4c0.4,0,0.7,0.1,1,0.2c0.3,0.1,0.6,0.3,0.8,0.5c0.2,0.2,0.4,0.5,0.5,0.8c0.1,0.3,0.2,0.7,0.2,1.1
		c0,0.4-0.1,0.8-0.2,1.1c-0.1,0.3-0.3,0.6-0.5,0.8c-0.2,0.2-0.5,0.4-0.8,0.5c-0.3,0.1-0.7,0.2-1,0.2c-0.4,0-0.7-0.1-1-0.2
		c-0.3-0.1-0.6-0.3-0.8-0.5c-0.2-0.2-0.4-0.5-0.5-0.8c-0.1-0.3-0.2-0.7-0.2-1.1c0-0.4,0.1-0.8,0.2-1.1c0.1-0.3,0.3-0.6,0.5-0.8
		c0.2-0.2,0.5-0.4,0.8-0.5C70.4,92.5,70.8,92.4,71.1,92.4z M71.1,97.1c0.5,0,0.9-0.2,1.2-0.5c0.3-0.3,0.4-0.8,0.4-1.4
		c0-0.6-0.1-1.1-0.4-1.5c-0.3-0.3-0.6-0.5-1.2-0.5c-0.3,0-0.5,0-0.7,0.1s-0.4,0.2-0.5,0.4c-0.1,0.2-0.2,0.4-0.3,0.6
		c-0.1,0.2-0.1,0.5-0.1,0.8c0,0.3,0,0.6,0.1,0.8c0.1,0.2,0.2,0.4,0.3,0.6c0.1,0.2,0.3,0.3,0.5,0.4S70.9,97.1,71.1,97.1z"/>
	<path class="st1" d="M74.8,97.7v-5.2h0.5c0.1,0,0.2,0.1,0.2,0.2l0.1,0.5c0.2-0.2,0.4-0.4,0.6-0.6c0.2-0.2,0.5-0.2,0.8-0.2
		c0.4,0,0.6,0.1,0.9,0.3c0.2,0.2,0.4,0.5,0.5,0.8c0.1-0.2,0.2-0.4,0.3-0.5c0.1-0.1,0.3-0.3,0.4-0.3c0.1-0.1,0.3-0.2,0.5-0.2
		c0.2,0,0.3-0.1,0.5-0.1c0.3,0,0.5,0,0.7,0.1c0.2,0.1,0.4,0.2,0.5,0.4c0.1,0.2,0.3,0.4,0.3,0.6c0.1,0.2,0.1,0.5,0.1,0.8v3.3h-0.9
		v-3.3c0-0.4-0.1-0.7-0.3-0.9c-0.2-0.2-0.4-0.3-0.8-0.3c-0.2,0-0.3,0-0.4,0.1c-0.1,0.1-0.3,0.1-0.4,0.2c-0.1,0.1-0.2,0.2-0.2,0.4
		s-0.1,0.3-0.1,0.5v3.3h-0.9v-3.3c0-0.4-0.1-0.7-0.3-0.9c-0.2-0.2-0.4-0.3-0.7-0.3c-0.2,0-0.4,0.1-0.6,0.2s-0.4,0.3-0.5,0.5v3.9
		H74.8z"/>
</g>
</svg>
