<?xml version="1.0" encoding="utf-8"?>
<!-- Generator: Adobe Illustrator 19.1.0, SVG Export Plug-In . SVG Version: 6.00 Build 0)  -->
<!DOCTYPE svg PUBLIC "-//W3C//DTD SVG 1.1//EN" "http://www.w3.org/Graphics/SVG/1.1/DTD/svg11.dtd">
<svg version="1.1" id="Layer_1" xmlns="http://www.w3.org/2000/svg" xmlns:xlink="http://www.w3.org/1999/xlink" x="0px" y="0px"
	 viewBox="107 20 313 61" style="enable-background:new 107 20 313 61;" xml:space="preserve">
<style type="text/css">
	.st0{fill:#FFFFFF;}
</style>
<g>
	<path class="st0" d="M355,35.5c-5.4-9.2-15.4-15-26.1-15c-5.3,0-10.5,1.4-15,4c-7,4-12,10.5-14.1,18.2c-2.1,7.7-1,15.8,3,22.7
		c5.4,9.2,15.4,15,26.1,15c5.3,0,10.5-1.4,15-4c7-4,12-10.5,14-18.2C360.1,50.5,359,42.4,355,35.5 M354.3,47.1
		c-0.3,1.1-0.7,2.1-1.2,3c-1.2-1.9-2.8-3.5-4.9-4.7c-2.1-1.2-4.5-1.9-6.9-1.9c1.2-2.1,1.8-4.4,1.8-7c0-2.3-0.6-4.4-1.5-6.4
		c4.7,0.1,9,2.7,11.3,6.7C354.7,40,355.2,43.6,354.3,47.1 M329.7,49.2c1.2-2.9,1.5-6.1,0.7-9.2c-0.3-1-0.6-1.9-1-2.7
		c1.2-2.2,2.9-4,5.1-5.2c1.9-1.1,4-1.7,6.2-1.8c1,1.9,1.6,4.1,1.6,6.3c0,2.6-0.7,4.9-2,7C336.1,43.8,332.2,45.9,329.7,49.2
		 M339.7,44.4c-2.2,3-5.6,5.1-9.5,5.5C332.5,46.8,335.9,44.8,339.7,44.4 M329.6,40.2c0.8,3,0.5,6.1-0.7,8.9
		c-1.3-2.8-1.5-5.9-0.7-8.9c0.2-0.7,0.4-1.3,0.7-2C329.2,38.8,329.4,39.5,329.6,40.2 M327.4,40c-0.8,3.1-0.6,6.3,0.7,9.2
		c-2.5-3.3-6.4-5.4-10.6-5.7c-1.2-2-2-4.4-2-7c0-2.3,0.6-4.5,1.6-6.3c2.2,0.1,4.3,0.7,6.2,1.8c2.2,1.3,3.9,3.1,5.1,5.2
		C328,38.1,327.6,39,327.4,40 M327.5,49.9c-3.9-0.4-7.3-2.5-9.5-5.5C321.8,44.8,325.3,46.8,327.5,49.9 M317,44.4
		c2.2,3.4,5.9,5.8,10.1,6.4c-4.2,0.5-7.9,2.9-10.1,6.4c-0.2,0-0.3,0-0.5,0c-2.4,0-4.7-0.6-6.7-1.8c-1.9-1.1-3.4-2.6-4.6-4.4
		c1.1-1.9,2.7-3.6,4.8-4.8c2-1.2,4.3-1.8,6.7-1.8C316.8,44.3,316.9,44.4,317,44.4 M327.5,51.5c-2.2,3.1-5.7,5.1-9.4,5.5
		C320.2,54,323.6,51.9,327.5,51.5 M317.5,57.9c4.2-0.3,8.1-2.4,10.6-5.7c-1.7,4-1.5,8.4,0.4,12.1c-1.1,2.1-2.8,3.9-5,5.2
		c-1.9,1.1-4.1,1.7-6.3,1.8c-1-1.9-1.6-4.1-1.6-6.4C315.5,62.3,316.2,59.9,317.5,57.9 M328.9,52.3c1.6,3.6,1.5,7.6,0,11
		C327.4,59.8,327.3,55.8,328.9,52.3 M329.7,52.2c2.5,3.3,6.4,5.4,10.6,5.7c1.2,2,2,4.4,2,7c0,2.3-0.6,4.5-1.6,6.4
		c-2.2-0.1-4.4-0.7-6.3-1.8c-2.2-1.3-3.9-3.1-5-5.2C331.2,60.5,331.4,56.1,329.7,52.2 M330.3,51.5c3.9,0.4,7.2,2.5,9.4,5.5
		C335.9,56.5,332.5,54.6,330.3,51.5 M340.8,57.1c-2.2-3.4-5.9-5.8-10.1-6.4c4.2-0.5,7.9-2.9,10.1-6.4c0.1,0,0.2,0,0.3,0
		c2.3,0,4.6,0.6,6.7,1.8c2.1,1.2,3.7,2.9,4.8,4.8c-1.1,1.8-2.7,3.3-4.6,4.4c-2.1,1.2-4.4,1.8-6.7,1.8
		C341.1,57.1,340.9,57.1,340.8,57.1 M351.8,34c-2.7-2.9-6.5-4.7-10.6-4.7c0,0-0.1,0-0.1,0c-2.2-3.8-6.1-6.5-10.7-7
		C339,22.8,346.9,27.2,351.8,34 M328.9,23.1c4.8,0,8.9,2.5,11.3,6.3c-2.2,0.2-4.3,0.8-6.1,1.9c-2.2,1.2-3.9,3-5.2,5.1
		c-1.2-2.1-3-3.8-5.2-5.1c-1.9-1.1-4-1.7-6.1-1.9C319.9,25.6,324.1,23.1,328.9,23.1 M314.7,26.1c3.9-2.2,8.2-3.5,12.6-3.7
		c-4.6,0.5-8.5,3.2-10.7,7c0,0-0.1,0-0.1,0c-4.2,0-8.1,1.8-10.8,4.8C308.1,30.9,311.1,28.2,314.7,26.1 M304.8,36.9
		c2.3-4,6.7-6.6,11.3-6.7c-1,1.9-1.5,4.1-1.5,6.4c0,2.5,0.7,4.9,1.8,7c-2.4,0-4.8,0.7-6.9,1.9c-2,1.2-3.7,2.8-4.9,4.7
		c-0.5-0.9-0.9-2-1.2-3C302.5,43.6,303,40,304.8,36.9 M301.5,43.2c0.3-1.3,0.8-2.5,1.3-3.8c-0.8,2.5-0.8,5.2-0.1,7.8
		c0.3,1.3,0.9,2.5,1.6,3.7c-1.9,3.5-2.3,7.8-0.9,11.7C300.4,56.6,299.8,49.8,301.5,43.2 M304.7,51.7c1.2,1.7,2.7,3.2,4.6,4.2
		c2.2,1.2,4.6,1.9,7.1,1.9c-1.2,2.1-1.8,4.4-1.8,7c0,2.3,0.5,4.4,1.5,6.4c-4.6-0.2-8.8-2.7-11.1-6.7
		C302.8,60.4,302.8,55.7,304.7,51.7 M306.4,67.6c2.6,2.8,6.3,4.4,10.2,4.5c1.6,2.8,4.2,5,7.3,6.2C317,77,310.7,73.2,306.4,67.6
		 M328.9,78.3c-4.8,0-8.9-2.5-11.3-6.3c2.2-0.1,4.3-0.8,6.2-1.9c2.2-1.3,3.9-3,5.1-5.1c1.2,2,2.9,3.8,5.1,5.1c1.9,1.1,4,1.7,6.2,1.9
		C337.8,75.8,333.6,78.3,328.9,78.3 M343,74.9c-2.9,1.7-6,2.8-9.3,3.3c3.1-1.2,5.7-3.4,7.3-6.2c4,0,7.7-1.7,10.4-4.6
		C349.2,70.5,346.4,73,343,74.9 M341.6,71.2c1-1.9,1.5-4.1,1.5-6.4c0-2.5-0.7-4.9-1.8-7c2.5,0,5-0.7,7.1-1.9
		c1.9-1.1,3.4-2.5,4.6-4.3c2,3.9,2,8.7-0.4,12.8C350.4,68.5,346.2,71,341.6,71.2 M356.2,57.8c-0.5,1.7-1.1,3.4-1.9,5
		c1.5-3.9,1.1-8.2-0.8-11.8c0.7-1.1,1.2-2.3,1.6-3.7c0.7-2.6,0.6-5.3-0.1-7.8C357.4,45.3,357.9,51.6,356.2,57.8"/>
	<path class="st0" d="M107,79.7V21.2h37.1V24h-33.8v55.7H107z M136.2,53.5h-21v-2.8h21V53.5z"/>
	<path class="st0" d="M151.7,79.7h-3.5l17.7-56.4c0.4-1.4,1.8-2.1,2.9-2.1c1.2,0,2.2,0.7,2.6,2.1L189,79.7h-3.4l-8.1-26.2h-12.8
		l0-2.8h11.8l-8-25.5L151.7,79.7z"/>
	<polygon class="st0" points="229.9,24 213.1,24 213.1,79.7 209.6,79.7 209.6,24 192.8,24 192.8,21.2 229.9,21.2 	"/>
	<path class="st0" d="M246.7,79.7h-3.4V21.2h3.4V79.7z M279,53.4h-28.7v-2.8H279V53.4z M285.9,79.7h-3.4V21.2h3.4V79.7z"/>
	<path class="st0" d="M416.7,21.2V21c-6.5,16.4-14.3,37.3-20.8,54.1c-6.5-17.4-13.8-36.7-20.7-54.1v0.2h-3.5v58.5h3.5v-50
		c5.8,14.7,13.7,35.3,19.2,50h2.8c6.3-16.2,13.1-33.7,19.4-50v50h3.3V21.2H416.7z"/>
</g>
</svg>
