<?xml version="1.0" encoding="utf-8"?>
<!-- Generator: Adobe Illustrator 18.1.1, SVG Export Plug-In . SVG Version: 6.00 Build 0)  -->
<svg version="1.1" id="Layer_1" xmlns="http://www.w3.org/2000/svg" xmlns:xlink="http://www.w3.org/1999/xlink" x="0px" y="0px"
	 viewBox="0 0 612 792" enable-background="new 0 0 612 792" xml:space="preserve">
<path fill="#FFFFFF" d="M531.8,234.4C485.3,154.3,399,104.7,306,104.7c-45.3,0-90.6,12.2-130.4,34.9
	c-60.6,34.9-103.4,90.6-121.8,157.9c-17.7,66.7-8.6,136.5,26.3,196.5c46.5,80.2,132.8,129.7,226.4,129.7
	c45.3,0,90.6-12.2,130.4-34.9c60.6-34.9,103.4-90.6,121.8-157.9C575.9,364.2,566.7,294.4,531.8,234.4 M525.7,334.8
	c-2.4,9.2-6.1,17.7-10.4,26.3c-10.4-16.5-24.5-30.6-42.2-40.4c-18.4-10.4-39.2-16.5-60-16.5c9.8-17.7,15.9-38.6,15.9-60
	c0-19.6-4.9-38.6-12.9-55.1c40.4,1.2,77.7,23.3,97.9,58.1C530,273.6,533.7,304.8,525.7,334.8 M313.3,352.5
	c11-25.1,12.9-53.2,5.5-80.2c-2.4-8.6-5.5-15.9-9.2-23.9c10.4-19,25.1-34.3,44.1-45.3c16.5-9.2,34.9-14.7,53.9-15.3
	c8.6,16.5,14.1,34.9,14.1,55.1c0,22-6.1,42.8-17.1,60.6C368.4,306,335.4,323.8,313.3,352.5 M399.6,311.5c-19,26.3-48.3,44.1-82,47.7
	C337.2,332.4,367.2,314.6,399.6,311.5 M312.1,274.8c6.7,25.7,4.9,53.2-6.1,77.1c-11-24.5-12.9-51.4-6.1-77.1
	c1.8-6.1,3.7-11.6,6.1-17.1C308.4,263.2,310.3,268.7,312.1,274.8 M292.5,273c-7.3,26.9-4.9,55.1,5.5,80.2
	c-21.4-28.8-55.1-47.1-91.2-49c-11-17.7-17.1-38.6-17.1-60.6c0-19.6,4.9-38.6,14.1-55.1c19,0.6,37.3,6.1,53.9,15.3
	c19,11,34.3,26.3,44.1,45.3C298,256.5,295,264.4,292.5,273 M294.4,359.3c-33.7-3.7-63-21.4-82-47.7
	C244.8,314.6,274.8,332.4,294.4,359.3 M203.2,310.9c19.6,29.4,50.8,50.2,87.5,55.1c-36.7,4.3-68.5,25.1-87.5,55.1
	c-1.2,0-2.4,0-4.3,0c-20.2,0-40.4-5.5-58.1-15.9c-16.5-9.2-30-22-39.8-37.9c9.8-16.5,23.9-31.2,41.6-41.6s37.3-15.9,58.1-15.9
	C201.3,310.9,202,310.9,203.2,310.9 M293.8,372.7c-19,26.3-49,43.5-81.4,47.7C231.3,394.2,260.1,376.4,293.8,372.7 M207.5,427.8
	c36.1-2.4,69.8-20.8,91.2-49.6c-14.7,34.3-12.9,72.2,3.1,104c-9.8,18.4-24.5,34.3-43.5,45.3c-16.5,9.8-35.5,14.7-54.5,15.3
	c-8.6-16.5-14.1-34.9-14.1-55.1C190.3,466.4,196.5,445.6,207.5,427.8 M306,379.5c14.1,31.2,12.9,65.5,0,95.5
	C293.1,445,291.9,410.1,306,379.5 M313.3,378.3c21.4,28.8,55.1,47.1,91.2,49.6c11,17.7,17.1,38.6,17.1,60.6
	c0,19.6-4.9,38.6-14.1,55.1c-19-0.6-37.9-6.1-54.5-15.3c-19-11-33.7-26.9-43.5-45.3C326.2,451.1,328,412.5,313.3,378.3 M318.2,372.7
	c33.7,3.7,62.4,21.4,81.4,47.7C367.2,416.2,337.2,399.1,318.2,372.7 M408.8,421.1c-19.6-29.4-50.8-50.2-87.5-55.1
	c36.7-4.3,68.5-25.1,87.5-55.1c1.2,0,1.8,0,3.1,0c20.2,0,40.4,5.5,57.5,15.9c17.7,10.4,31.8,24.5,41.6,41.6
	c-9.8,15.3-23.3,28.2-39.8,37.9c-17.7,10.4-37.9,15.3-58.1,15.3C411.9,421.1,410,421.1,408.8,421.1 M504.9,221.6
	c-23.3-25.7-56.9-40.4-91.8-40.4h-0.6c-19.6-33-53.2-56.3-93-60.6C393.5,124.9,461.4,162.2,504.9,221.6 M306,126.7
	c41,0,77.1,22,97.9,54.5c-18.4,1.2-36.7,6.7-53.2,16.5c-19,11-34.3,25.7-44.7,44.1c-11-18.4-25.7-33-44.7-44.1
	c-16.5-9.2-34.9-14.7-53.2-16.5C228.9,148.8,265,126.7,306,126.7 M183.6,153c33-19.6,71-30.6,108.9-32.4
	c-39.8,4.3-73.4,27.5-92.4,60.6h-0.6c-36.1,0-69.8,15.3-93,41.6C126.1,194.7,152.4,170.8,183.6,153 M97.9,246.7
	c20.2-34.9,57.5-56.9,97.9-58.1c-8.6,16.5-12.9,35.5-12.9,55.1c0,22,5.5,42.2,15.9,60c-20.8,0-41.6,6.1-60,16.5
	c-17.7,10.4-31.8,24.5-42.2,40.4c-4.3-8-8-17.1-10.4-26.3C78.3,304.8,82,273.6,97.9,246.7 M69.2,301.1c3.1-11,6.7-22,11-32.4
	c-6.7,22-7.3,45.3-1.2,67.9c3.1,11,7.3,22,13.5,31.8c-16.5,30.6-20.2,67.3-8,101C59.4,416.8,53.9,358.1,69.2,301.1 M96.7,374.6
	c10.4,14.7,23.9,27.5,39.8,36.7c19,11,40.4,16.5,61.8,16.5c-9.8,17.7-15.9,38.6-15.9,60c0,19.6,4.9,38.6,12.9,55.1
	c-39.8-1.8-75.9-23.3-96.1-58.1C79.6,449.9,80.2,408.9,96.7,374.6 M111.4,512.3c22.6,23.9,55.1,38.6,88.7,38.6
	c14.1,24.5,36.7,43.5,63,53.2C203.2,593.7,148.7,560.6,111.4,512.3 M306,604.7c-41,0-77.1-21.4-97.9-54.5c19-1.2,37.3-6.7,53.9-16.5
	c19-11,33.7-26.3,44.1-44.1c10.4,17.7,25.1,33,44.1,44.1c16.5,9.8,34.9,15.3,53.9,16.5C383.1,583.3,347,604.7,306,604.7
	 M428.4,575.3c-25.1,14.1-52,23.9-80.2,28.8c26.9-9.8,49-28.8,63.6-53.2c34.3,0,66.7-14.7,90-39.8
	C482.3,536.8,457.8,558.8,428.4,575.3 M416.2,543.5c8-16.5,12.9-35.5,12.9-55.1c0-22-5.5-42.2-15.9-60c21.4,0,42.8-5.5,61.8-16.5
	c15.9-9.2,29.4-22,39.8-36.7c17.1,33.7,17.1,75.3-3.1,110.8C492,519.6,455.3,541.7,416.2,543.5 M542.8,426.6
	c-4.3,15.3-9.8,29.4-15.9,43.5c12.9-34.3,9.2-71.6-7.3-102.2c6.1-9.8,10.4-20.2,13.5-31.8c6.1-22.6,5.5-45.3-1.2-67.3
	C553.2,318.9,556.9,374,542.8,426.6"/>
</svg>
